{"title":"Roger Gnoan M'Bala - Au nom du Christ (1993)","uid":5496156,"size":1190715489,"categoryP":"video","categoryS":"movies","magnet":"?xt=urn:btih:1d699da407ac84faccafac61d35e7755314e9906&amp;dn=Roger+Gnoan+M%5C%27Bala+-+Au+nom+du+Christ+%281993%29&amp;tr=udp%3A%2F%2Ftracker.openbittorrent.com%3A80&amp;tr=udp%3A%2F%2Fopen.demonii.com%3A1337&amp;tr=udp%3A%2F%2Ftracker.coppersurfer.tk%3A6969&amp;tr=udp%3A%2F%2Fexodus.desync.com%3A6969","seeders":2,"leechers":1,"uploader":"mfccorrea","files":3,"time":1271283232,"description":"Gnamien Ato, an occasional pig man who also works as a welder, is the odd-job man in the village of Bali Ahuekro which has a population of three thousand. One day, alone in the forest Gnamien Ato experiences &quot;hypnotic convulsions&quot;. In a vision he sees a child and hears a heavenly voice telling him what his mission in life is. Taking this dream for reality the pig man goes to the village square one morning to preach his new faith, he performs several &quot;miracles&quot; thus gaining the trust of the villagers. Amazed and convinced of the coming of a &quot;messiah&quot;, the inhabitants of Balo Ahuekro all join the new faith.\nNow named Magloire 1st, the former pig man embarks on his mission as a &quot;Liberator&quot; appointed by God...\nMagloire 1st, who also claims to be the son of Christ, acquires great fame. From all over the country people come to see him: would-be politicians, shopkeepers who want to make more money, sterile women, paralytics, blind people and poor people. \n\n   General\n      Complete name : Au nom du Christ.avi\n      Format : AVI\n      Format/Info : Audio Video Interleave\n      File size : 1.10 GiB\n      Duration : 1h 17mn\n      Overall bit rate : 2 038 Kbps\n      Writing application : FairUse Wizard - http://fairusewizard.com\n      Writing library : The best and REALLY easy backup tool\n   Video #0\n      ID : 0\n      Format : MPEG-4 Visual\n      Format profile : AdvancedSimple@L5\n      Format settings, BVOP : Yes\n      Format settings, QPel : No\n      Format settings, GMC : No warppoints\n      Format settings, Matrix : Default (MPEG)\n      Muxing mode : Packed bitstream\n      Codec ID : XVID\n      Codec ID/Hint : XviD\n      Duration : 1h 17mn\n      Bit rate : 1 834 Kbps\n      Width : 624 pixels\n      Height : 384 pixels\n      Display aspect ratio : 1.625\n      Frame rate : 29.970 fps\n      Resolution : 24 bits\n      Colorimetry : 4:2:0\n      Scan type : Progressive\n      Bits/(Pixel*Frame) : 0.255\n      Stream size : 1 014 MiB (90%)\n      Writing library : XviD 1.2.0.dev47 (UTC 2006-11-01)\n   Audio #1\n      ID : 1\n      Format : AC-3\n      Format/Info : Audio Coding 3\n      Codec ID : 2000\n      Duration : 1h 17mn\n      Bit rate mode : Constant\n      Bit rate : 192 Kbps\n      Channel(s) : 2 channels\n      Channel positions : L R\n      Sampling rate : 48.0 KHz\n      Stream size : 106 MiB (9%)\n      Alignment : Split accross interleaves\n      Interleave, duration : 33 ms (1.00 video frame)\n      Interleave, preload duration : 500 ms\n &lt;a href=&quot;\nhttp://www.imdb.com/title/tt0106319/&quot; rel=&quot;nofollow&quot; target=&quot;_NEW&quot;&gt;\nhttp://www.imdb.com/title/tt0106319/&lt;/a&gt;\n\nFrench audio; English, French, Spanish, Portuguese and Arab subtitles (idx/sub)\n\n\nRoger Gnoan M'Bala - Au nom du Christ (1993)","torrent":{"xt":"urn:btih:1d699da407ac84faccafac61d35e7755314e9906","amp;dn":"Roger+Gnoan+M%5C%27Bala+-+Au+nom+du+Christ+%281993%29","amp;tr":["udp%3A%2F%2Ftracker.openbittorrent.com%3A80","udp%3A%2F%2Fopen.demonii.com%3A1337","udp%3A%2F%2Ftracker.coppersurfer.tk%3A6969","udp%3A%2F%2Fexodus.desync.com%3A6969"],"infoHash":"1d699da407ac84faccafac61d35e7755314e9906","infoHashBuffer":{"type":"Buffer","data":[29,105,157,164,7,172,132,250,204,175,172,97,211,94,119,85,49,78,153,6]},"announce":[],"urlList":[]}}